<svg width="16" height="15" viewBox="0 0 16 15" fill="none" xmlns="http://www.w3.org/2000/svg">
<g clip-path="url(#clip0_15_1000)">
<path d="M7.92798 1.5484C9.86751 1.5484 10.0972 1.55691 10.86 1.59094C11.5688 1.62213 11.9516 1.74122 12.2068 1.84047C12.5443 1.9709 12.7881 2.12969 13.0405 2.38206C13.2957 2.63726 13.4517 2.87828 13.5821 3.21571C13.6813 3.47091 13.8004 3.85655 13.8316 4.56261C13.8656 5.32821 13.8742 5.55789 13.8742 7.49458C13.8742 9.4341 13.8656 9.66378 13.8316 10.4265C13.8004 11.1354 13.6813 11.5182 13.5821 11.7734C13.4517 12.1109 13.2929 12.3547 13.0405 12.6071C12.7853 12.8623 12.5443 13.0182 12.2068 13.1487C11.9516 13.2479 11.566 13.367 10.86 13.3982C10.0943 13.4322 9.86467 13.4407 7.92798 13.4407C5.98846 13.4407 5.75878 13.4322 4.99601 13.3982C4.28712 13.367 3.90432 13.2479 3.64912 13.1487C3.31169 13.0182 3.06783 12.8595 2.81546 12.6071C2.56026 12.3519 2.40431 12.1109 2.27387 11.7734C2.17463 11.5182 2.05553 11.1326 2.02434 10.4265C1.99032 9.66094 1.98181 9.43126 1.98181 7.49458C1.98181 5.55505 1.99032 5.32537 2.02434 4.56261C2.05553 3.85372 2.17463 3.47091 2.27387 3.21571C2.40431 2.87828 2.5631 2.63442 2.81546 2.38206C3.07067 2.12686 3.31169 1.9709 3.64912 1.84047C3.90432 1.74122 4.28996 1.62213 4.99601 1.59094C5.75878 1.55691 5.98846 1.5484 7.92798 1.5484ZM7.92798 0.241211C5.95727 0.241211 5.71057 0.249718 4.93646 0.283744C4.16519 0.317771 3.63494 0.442536 3.17558 0.621176C2.69637 0.808323 2.29089 1.05502 1.88824 1.4605C1.48275 1.86315 1.23606 2.26864 1.04891 2.74501C0.87027 3.20721 0.745505 3.73462 0.711479 4.50589C0.677452 5.28284 0.668945 5.52953 0.668945 7.50025C0.668945 9.47096 0.677452 9.71766 0.711479 10.4918C0.745505 11.263 0.87027 11.7933 1.04891 12.2526C1.23606 12.7319 1.48275 13.1373 1.88824 13.54C2.29089 13.9426 2.69637 14.1922 3.17275 14.3765C3.63494 14.5551 4.16236 14.6799 4.93363 14.7139C5.70774 14.7479 5.95443 14.7564 7.92515 14.7564C9.89586 14.7564 10.1426 14.7479 10.9167 14.7139C11.6879 14.6799 12.2182 14.5551 12.6775 14.3765C13.1539 14.1922 13.5594 13.9426 13.9621 13.54C14.3647 13.1373 14.6142 12.7319 14.7985 12.2555C14.9772 11.7933 15.1019 11.2659 15.136 10.4946C15.17 9.72049 15.1785 9.4738 15.1785 7.50308C15.1785 5.53237 15.17 5.28567 15.136 4.51157C15.1019 3.74029 14.9772 3.21004 14.7985 2.75068C14.6199 2.26864 14.3732 1.86315 13.9677 1.4605C13.5651 1.05785 13.1596 0.808323 12.6832 0.624012C12.221 0.445371 11.6936 0.320607 10.9223 0.28658C10.1454 0.249718 9.8987 0.241211 7.92798 0.241211Z" fill="black"/>
<path d="M7.92798 3.77148C5.86936 3.77148 4.19922 5.44163 4.19922 7.50025C4.19922 9.55886 5.86936 11.229 7.92798 11.229C9.9866 11.229 11.6567 9.55886 11.6567 7.50025C11.6567 5.44163 9.9866 3.77148 7.92798 3.77148ZM7.92798 9.91898C6.59243 9.91898 5.50925 8.8358 5.50925 7.50025C5.50925 6.1647 6.59243 5.08151 7.92798 5.08151C9.26353 5.08151 10.3467 6.1647 10.3467 7.50025C10.3467 8.8358 9.26353 9.91898 7.92798 9.91898Z" fill="black"/>
<path d="M12.6746 3.62442C12.6746 4.10647 12.2833 4.49494 11.8041 4.49494C11.3221 4.49494 10.9336 4.10363 10.9336 3.62442C10.9336 3.14238 11.3249 2.75391 11.8041 2.75391C12.2833 2.75391 12.6746 3.14521 12.6746 3.62442Z" fill="black"/>
</g>
<defs>
<clipPath id="clip0_15_1000">
<rect width="14.5181" height="14.5181" fill="white" transform="translate(0.668945 0.241211)"/>
</clipPath>
</defs>
</svg>
