<svg width="18" height="17" viewBox="0 0 18 17" fill="none" xmlns="http://www.w3.org/2000/svg">
<path d="M8.9778 0.263672C4.42901 0.263672 0.741211 3.95147 0.741211 8.50026C0.741211 13.049 4.42901 16.7368 8.9778 16.7368C13.5266 16.7368 17.2144 13.049 17.2144 8.50026C17.2144 3.95147 13.5266 0.263672 8.9778 0.263672ZM7.25442 1.29765C6.58507 2.03592 6.01565 2.86534 5.56785 3.76724C5.0223 3.56461 4.50617 3.30461 4.00975 3.01443C4.91716 2.19213 6.02527 1.59195 7.25442 1.29765ZM3.40932 3.6231C3.98449 3.97371 4.58686 4.28367 5.22603 4.52337C4.77961 5.63203 4.51714 6.83125 4.4691 8.08843H1.58575C1.68018 6.38236 2.35008 4.83086 3.40932 3.6231ZM1.58575 8.91209H4.4691C4.51714 10.1693 4.77961 11.3685 5.22603 12.4771C4.58686 12.7168 3.98424 13.0268 3.40932 13.3774C2.35008 12.1697 1.68018 10.6182 1.58575 8.91209ZM4.00975 13.9861C4.50588 13.6956 5.02202 13.4359 5.56785 13.2333C6.01565 14.1352 6.58507 14.9646 7.25442 15.7029C6.02527 15.4086 4.91687 14.8086 4.00975 13.9861ZM8.56597 15.83C7.66818 15.0231 6.91151 14.0635 6.35554 12.9807C7.06388 12.7838 7.80353 12.6657 8.56597 12.6339V15.83ZM8.56597 11.8103C7.6841 11.8441 6.82969 11.9821 6.0151 12.2171C5.59365 11.1898 5.34437 10.0784 5.29578 8.91209H8.56597V11.8103ZM8.56597 8.08843H5.29578C5.34437 6.92211 5.59369 5.81072 6.0151 4.78337C6.82969 5.01811 7.6841 5.15649 8.56597 5.18999V8.08843ZM8.56597 4.36687C7.80353 4.33476 7.06388 4.21669 6.35554 4.01984C6.91151 2.93728 7.66818 1.97772 8.56597 1.17082V4.36687ZM16.3699 8.08843H13.4865C13.4385 6.83125 13.176 5.63199 12.7296 4.52337C13.3688 4.28367 13.9711 3.97371 14.5463 3.6231C15.6058 4.83115 16.2754 6.38262 16.3699 8.08843ZM13.9461 3.0144C13.4497 3.30487 12.9335 3.56461 12.3877 3.76721C11.9399 2.86531 11.3705 2.03589 10.7012 1.29762C11.9303 1.59195 13.0387 2.19187 13.9461 3.0144ZM9.38962 1.17079C10.2874 1.97769 11.0441 2.93725 11.6001 4.0201C10.8917 4.21669 10.1521 4.33473 9.38962 4.36659V1.17079ZM9.38962 8.08843V5.19024C10.2715 5.15675 11.1259 5.01837 11.9405 4.78363C12.3619 5.81101 12.6112 6.9224 12.6598 8.08868H9.38962V8.08843ZM9.38962 8.91209H12.6598C12.6113 10.0784 12.3619 11.1898 11.9405 12.2171C11.1259 11.9821 10.2715 11.844 9.38966 11.8103V8.91209H9.38962ZM9.38962 15.83V12.6339C10.1521 12.6658 10.8917 12.7838 11.6001 12.9807C11.0441 14.0635 10.2874 15.0228 9.38962 15.83ZM10.7012 15.7029C11.3705 14.9646 11.9399 14.1352 12.3877 13.2333C12.9333 13.4359 13.4494 13.6959 13.9458 13.9861C13.0387 14.8084 11.9303 15.4086 10.7012 15.7029ZM14.5463 13.3774C13.9711 13.0268 13.3687 12.7168 12.7296 12.4771C13.176 11.3685 13.4385 10.1693 13.4865 8.91209H16.3698C16.2754 10.6182 15.6055 12.1697 14.5463 13.3774Z" fill="black"/>
</svg>
