<svg width="16" height="15" viewBox="0 0 16 15" fill="none" xmlns="http://www.w3.org/2000/svg">
<path d="M8.21704 0.241211C4.20802 0.241211 0.958008 3.49123 0.958008 7.50025C0.958008 10.9044 3.30181 13.761 6.46355 14.5456V9.71861H4.96674V7.50025H6.46355V6.54438C6.46355 4.07369 7.58173 2.92851 10.0074 2.92851C10.4673 2.92851 11.2609 3.01881 11.5855 3.10882V5.11957C11.4142 5.10157 11.1166 5.09257 10.747 5.09257C9.55677 5.09257 9.09684 5.5435 9.09684 6.71569V7.50025H11.4679L11.0606 9.71861H9.09684V14.7061C12.6912 14.2721 15.4764 11.2116 15.4764 7.50025C15.4761 3.49123 12.2261 0.241211 8.21704 0.241211Z" fill="black"/>
</svg>
