<svg width="17" height="16" viewBox="0 0 17 16" fill="none" xmlns="http://www.w3.org/2000/svg">
<path d="M14.9008 0.501953H2.08225C1.4682 0.501953 0.97168 0.986725 0.97168 1.58608V14.4575C0.97168 15.0568 1.4682 15.5446 2.08225 15.5446H14.9008C15.5148 15.5446 16.0143 15.0569 16.0143 14.4604V1.58608C16.0143 0.986725 15.5148 0.501953 14.9008 0.501953ZM5.43452 13.3205H3.20163V6.13999H5.43452V13.3205ZM4.31807 5.16164C3.6012 5.16164 3.02241 4.58285 3.02241 3.86891C3.02241 3.15498 3.6012 2.57619 4.31807 2.57619C5.03201 2.57619 5.6108 3.15498 5.6108 3.86891C5.6108 4.57991 5.03201 5.16164 4.31807 5.16164ZM13.7902 13.3205H11.5603V9.83013C11.5603 8.99868 11.5456 7.9263 10.3998 7.9263C9.23924 7.9263 9.06296 8.83415 9.06296 9.77137V13.3205H6.83595V6.13999H8.97482V7.12129H9.0042C9.30093 6.55719 10.0296 5.96077 11.1137 5.96077C13.373 5.96077 13.7902 7.44741 13.7902 9.38062V13.3205Z" fill="white"/>
</svg>
