<svg width="17" height="16" viewBox="0 0 17 16" fill="none" xmlns="http://www.w3.org/2000/svg">
<path d="M8.49298 0.501953C4.33912 0.501953 0.97168 3.86939 0.97168 8.02326C0.97168 11.5504 3.40016 14.5102 6.67614 15.3231V10.3218H5.12524V8.02326H6.67614V7.03285C6.67614 4.4729 7.83472 3.28634 10.348 3.28634C10.8246 3.28634 11.6468 3.3799 11.9832 3.47317V5.55657C11.8057 5.53792 11.4973 5.52859 11.1143 5.52859C9.88111 5.52859 9.40456 5.99581 9.40456 7.21035V8.02326H11.8613L11.4392 10.3218H9.40456V15.4895C13.1288 15.0397 16.0146 11.8687 16.0146 8.02326C16.0143 3.86939 12.6468 0.501953 8.49298 0.501953Z" fill="white"/>
</svg>
