<svg width="16" height="11" viewBox="0 0 16 11" fill="none" xmlns="http://www.w3.org/2000/svg">
<path d="M14.8974 2.59679C14.8974 2.59679 14.7556 1.59583 14.3189 1.15632C13.766 0.577866 13.1478 0.57503 12.8643 0.541004C10.834 0.393555 7.7858 0.393555 7.7858 0.393555H7.78013C7.78013 0.393555 4.7319 0.393555 2.70164 0.541004C2.41808 0.57503 1.79993 0.577866 1.24699 1.15632C0.810317 1.59583 0.671375 2.59679 0.671375 2.59679C0.671375 2.59679 0.523926 3.77354 0.523926 4.94747V6.04766C0.523926 7.22158 0.668539 8.39834 0.668539 8.39834C0.668539 8.39834 0.810317 9.3993 1.24416 9.83881C1.79709 10.4173 2.523 10.3974 2.84625 10.4598C4.00883 10.5704 7.78296 10.6044 7.78296 10.6044C7.78296 10.6044 10.834 10.5987 12.8643 10.4541C13.1478 10.4201 13.766 10.4173 14.3189 9.83881C14.7556 9.3993 14.8974 8.39834 14.8974 8.39834C14.8974 8.39834 15.042 7.22442 15.042 6.04766V4.94747C15.042 3.77354 14.8974 2.59679 14.8974 2.59679ZM6.28295 7.38321V3.30284L10.2045 5.35011L6.28295 7.38321Z" fill="black"/>
</svg>
